<svg xmlns="http://www.w3.org/2000/svg" width="125" height="100" viewBox="0 0 584.58 465.97"><defs><style>.cls-1{fill:#009;}.cls-2{fill:#fff;}</style></defs><title>Asset 1</title><g id="Layer_2" data-name="Layer 2"><g id="Layer_1-2" data-name="Layer 1"><polygon class="cls-1" points="0 0 0 465.97 584.58 465.97 584.58 0 0 0 0 0"/><path class="cls-2" d="M356.94,171.72c0-27.92-25.58-68-75-68-44.78,0-75,38.39-75,77.93,0,47.11,32.57,80.84,88.4,80.84H401.15c-25,39-68.63,64-118.65,64-79.09,0-143.06-64.55-143.06-143.64s64-143.65,143.06-143.65,143.65,64.55,143.65,143.65c0,15.7-2.91,30.82-7,44.78H259.24V211.84l56.41-1.74c28.5-1.16,41.29-15.7,41.29-38.38Z"/><path class="cls-2" d="M70.8,389.44A10.44,10.44,0,0,0,60,379.68c-6.42,0-10.76,5.51-10.76,11.18,0,6.76,4.67,11.6,12.68,11.6H77.14a20,20,0,0,1-17,9.18A20.61,20.61,0,1,1,80.73,391a23.12,23.12,0,0,1-1,6.42H56.79V395.2l8.09-.25c4.09-.17,5.92-2.25,5.92-5.51Z"/><polygon class="cls-2" points="97.83 383.19 105.68 371.67 116.53 371.67 103.17 390.28 117.61 410.39 106.1 410.39 97.5 397.87 88.82 410.39 77.98 410.39 92.16 390.78 78.39 371.67 89.91 371.67 97.83 383.19 97.83 383.19"/><path class="cls-2" d="M129.54,379.26c2.84-6,7.93-8.67,13.1-8.67,9.34,0,17.85,7.92,17.85,20.44s-8.51,20.44-17.85,20.44c-5.17,0-10.26-2.67-13.1-8.68-.17-.33-.42-.25-.42.09v23.44h-10V371.67h10v7.51c0,.34.25.42.42.08Zm10.35,23.95c5.84,0,10.93-5.09,10.93-12.18s-5.09-12.18-10.93-12.18S129,383.94,129,391s5.18,12.18,10.94,12.18Z"/><path class="cls-2" d="M195,389.44a10.44,10.44,0,0,0-10.76-9.76c-6.43,0-10.77,5.51-10.77,11.18,0,6.76,4.68,11.6,12.69,11.6h15.18a20.05,20.05,0,0,1-17,9.18A20.61,20.61,0,1,1,204.88,391a23.12,23.12,0,0,1-1,6.42H180.93V395.2L189,395c4.09-.17,5.92-2.25,5.92-5.51Z"/><path class="cls-2" d="M239.09,402.79c-2.84,6-7.93,8.68-13.1,8.68-9.35,0-17.86-7.93-17.86-20.44s8.51-20.44,17.86-20.44c5.17,0,10.26,2.67,13.1,8.67.16.34.41.26.41-.08V354.9h10v55.49h-10v-7.51c0-.34-.25-.42-.41-.09Zm-10.35-23.94c-5.84,0-10.93,5.09-10.93,12.18s5.09,12.18,10.93,12.18,10.93-5.09,10.93-12.18-5.17-12.18-10.93-12.18Z"/><path class="cls-2" d="M255.85,360.41a5.85,5.85,0,1,1,5.84,5.84,5.91,5.91,0,0,1-5.84-5.84Zm10.85,11.26v38.72h-10V371.67Z"/><path class="cls-2" d="M302.66,402.79c-2.84,6-7.93,8.68-13.1,8.68-9.34,0-17.86-7.93-17.86-20.44s8.52-20.44,17.86-20.44c5.17,0,10.26,2.67,13.1,8.67.17.34.42.26.42-.08v-7.51h10v38.72h-10v-7.51c0-.34-.25-.42-.42-.09Zm-10.35-23.94c-5.84,0-10.93,5.09-10.93,12.18s5.09,12.18,10.93,12.18,10.93-5.09,10.93-12.18-5.17-12.18-10.93-12.18Z"/><path class="cls-2" d="M362.9,402.54c0-.33-.25-.41-.42-.08-2.84,6-7.84,8.68-12.93,8.68-9.26,0-17.69-7.85-17.69-20.28s8.43-20.27,17.69-20.27c5.09,0,10.09,2.67,12.93,8.67.17.34.42.26.42-.08v-7.51h10v36.46c0,10.77-7.42,19.11-20.27,19.11a26.12,26.12,0,0,1-18-6.76l6-6.51c4,3.17,7.18,4.84,11.85,4.84,7.34,0,10.43-5.17,10.43-11.59v-4.68Zm-10.6-23.69c-5.75,0-10.76,5-10.76,12s5,12,10.76,12,10.77-5,10.77-12-5.09-12-10.77-12Z"/><path class="cls-2" d="M390.1,371.67v8.43c0,.17.16.25.25,0,1.33-6.93,4.34-9.51,9.51-9.51h.92V381.1h-4.51c-4.09,0-6.17,3.17-6.17,7.68v21.61h-10V371.67Z"/><path class="cls-2" d="M422.05,370.42A20.61,20.61,0,1,1,401.36,391a20.64,20.64,0,0,1,20.69-20.61Zm-.08,9.1c-6,0-10.93,5-10.93,11.51S416,402.54,422,402.54s10.93-5,10.93-11.51S428,379.52,422,379.52Z"/><path class="cls-2" d="M463.35,411.64c-9.76,0-16-5.93-16-14.6V371.67h10v24.61a6.14,6.14,0,1,0,12.27.09v-24.7h10V397c0,8.67-6.76,14.6-16.27,14.6Z"/><path class="cls-2" d="M497,379.26c2.84-6,7.93-8.67,13.1-8.67,9.35,0,17.86,7.92,17.86,20.44s-8.51,20.44-17.86,20.44c-5.17,0-10.26-2.67-13.1-8.68-.16-.33-.41-.25-.41.09v23.44h-10V371.67h10v7.51c0,.34.25.42.41.08Zm10.35,23.95c5.84,0,10.93-5.09,10.93-12.18s-5.09-12.18-10.93-12.18-10.93,5.09-10.93,12.18,5.17,12.18,10.93,12.18Z"/><path class="cls-2" d="M390,314.74v2.1h-3.55v9.77h-2.5v-9.77h-3.57v-2.1Z"/><path class="cls-2" d="M399.29,314.74h3.58v11.87h-2.32v-8c0-.23,0-.55,0-1s0-.74,0-1l-2.25,10h-2.41l-2.24-10c0,.22,0,.54,0,1s0,.74,0,1v8h-2.31V314.74H395l2.16,9.33Z"/><path class="cls-2" d="M538.25,371.63v1h-1.74v4.78h-1.22v-4.78h-1.75v-1Z"/><path class="cls-2" d="M542.82,371.63h1.74v5.81h-1.13v-3.93c0-.12,0-.27,0-.48v-.47l-1.1,4.88h-1.18l-1.09-4.88v4.88h-1.13v-5.81h1.77l1.06,4.57Z"/></g></g></svg>